HIERARCHY
ROOT hip
{
  OFFSET 0.00112043 5.09927 -9.65472
  CHANNELS 6 Xposition Yposition Zposition Zrotation Xrotation Yrotation
  JOINT abdomen
  {
    OFFSET 0 -1.186 -1.5018
    CHANNELS 3 Zrotation Xrotation Yrotation
    JOINT abdomen2
    {
      OFFSET 0 9.964 0.2134
      CHANNELS 3 Zrotation Xrotation Yrotation
      JOINT chest
      {
        OFFSET 0 13.134 -3.2573
        CHANNELS 3 Zrotation Xrotation Yrotation
        JOINT neck
        {
          OFFSET 0 20.686 -1.6905
          CHANNELS 3 Zrotation Xrotation Yrotation
          JOINT head
          {
            OFFSET 0 7.238 -0.1237
            CHANNELS 3 Zrotation Xrotation Yrotation
            End Site
            {
              OFFSET 0 0 0
            }
          }
        }
        JOINT lCollar
        {
          OFFSET 1.7069 20.075 5.0056
          CHANNELS 3 Zrotation Xrotation Yrotation
          JOINT lShldr
          {
            OFFSET 13.6458 -0.047 -4.849
            CHANNELS 3 Zrotation Xrotation Yrotation
            JOINT lForeArm
            {
              OFFSET 28.3255 -0.9759 2.2888
              CHANNELS 3 Zrotation Xrotation Yrotation
              JOINT lHand
              {
                OFFSET 22.1583 -0.53 10.8316
                CHANNELS 3 Zrotation Xrotation Yrotation
                JOINT lThumb1
                {
                  OFFSET 0.786 0.112 2.5817
                  CHANNELS 3 Zrotation Xrotation Yrotation
                  JOINT lThumb2
                  {
                    OFFSET 0.3601 -0.878 4.2331
                    CHANNELS 3 Zrotation Xrotation Yrotation
                    JOINT lThumb2_End
                    {
                      OFFSET 1.8127 -1.216 2.2227
                      CHANNELS 3 Zrotation Xrotation Yrotation
                      End Site
                      {
                        OFFSET 0.0181 -0.0122 0.0222
                      }
                    }
                  }
                }
                JOINT lCarpal1
                {
                  OFFSET 0.9571 1.114 1.7695
                  CHANNELS 3 Zrotation Xrotation Yrotation
                  JOINT lIndex1
                  {
                    OFFSET 4.1246 0.487 4.1451
                    CHANNELS 3 Zrotation Xrotation Yrotation
                    JOINT lIndex2
                    {
                      OFFSET 3.4052 -1.454 2.7682
                      CHANNELS 3 Zrotation Xrotation Yrotation
                      JOINT lIndex2_End
                      {
                        OFFSET 1.4531 -1.795 1.2713
                        CHANNELS 3 Zrotation Xrotation Yrotation
                        End Site
                        {
                          OFFSET 0.0145 -0.0179 0.0127
                        }
                      }
                    }
                  }
                  JOINT lMid1
                  {
                    OFFSET 5.6954 0.21 2.1184
                    CHANNELS 3 Zrotation Xrotation Yrotation
                    JOINT lMid2
                    {
                      OFFSET 3.9766 -1.54 2.3863
                      CHANNELS 3 Zrotation Xrotation Yrotation
                      JOINT lMid2_End
                      {
                        OFFSET 1.4042 -1.926 1.125
                        CHANNELS 3 Zrotation Xrotation Yrotation
                        End Site
                        {
                          OFFSET 0.014 -0.0193 0.0113
                        }
                      }
                    }
                  }
                }
                JOINT lCarpal2
                {
                  OFFSET 2.0956 0.66 -0.3894
                  CHANNELS 3 Zrotation Xrotation Yrotation
                  JOINT lRing1
                  {
                    OFFSET 5.0395 -0.09 2.4971
                    CHANNELS 3 Zrotation Xrotation Yrotation
                    JOINT lRing2
                    {
                      OFFSET 3.7921 -1.552 1.4806
                      CHANNELS 3 Zrotation Xrotation Yrotation
                      JOINT lRing2_End
                      {
                        OFFSET 1.4655 -1.808 0.9609
                        CHANNELS 3 Zrotation Xrotation Yrotation
                        End Site
                        {
                          OFFSET 0.0147 -0.0181 0.0096
                        }
                      }
                    }
                  }
                  JOINT lPinky1
                  {
                    OFFSET 4.9141 -1.269 0.3591
                    CHANNELS 3 Zrotation Xrotation Yrotation
                    JOINT lPinky2
                    {
                      OFFSET 3.1477 -1.685 0.8462
                      CHANNELS 3 Zrotation Xrotation Yrotation
                      JOINT lPinky2_End
                      {
                        OFFSET 0.8055 -1.585 0.7955
                        CHANNELS 3 Zrotation Xrotation Yrotation
                        End Site
                        {
                          OFFSET 0.0081 -0.0158 0.008
                        }
                      }
                    }
                  }
                }
              }
            }
          }
        }
        JOINT rCollar
        {
          OFFSET -1.7069 20.075 5.0056
          CHANNELS 3 Zrotation Xrotation Yrotation
          JOINT rShldr
          {
            OFFSET -13.6458 -0.047 -4.849
            CHANNELS 3 Zrotation Xrotation Yrotation
            JOINT rForeArm
            {
              OFFSET -28.3255 -0.9759 2.2888
              CHANNELS 3 Zrotation Xrotation Yrotation
              JOINT rHand
              {
                OFFSET -22.1583 -0.53 10.8316
                CHANNELS 3 Zrotation Xrotation Yrotation
                JOINT rThumb1
                {
                  OFFSET -0.786 0.112 2.5817
                  CHANNELS 3 Zrotation Xrotation Yrotation
                  JOINT rThumb2
                  {
                    OFFSET -0.3601 -0.878 4.2331
                    CHANNELS 3 Zrotation Xrotation Yrotation
                    JOINT rThumb2_End
                    {
                      OFFSET -1.8127 -1.216 2.2227
                      CHANNELS 3 Zrotation Xrotation Yrotation
                      End Site
                      {
                        OFFSET -0.0181 -0.0122 0.0222
                      }
                    }
                  }
                }
                JOINT rCarpal1
                {
                  OFFSET -0.9571 1.114 1.7695
                  CHANNELS 3 Zrotation Xrotation Yrotation
                  JOINT rIndex1
                  {
                    OFFSET -4.1246 0.487 4.1451
                    CHANNELS 3 Zrotation Xrotation Yrotation
                    JOINT rIndex2
                    {
                      OFFSET -3.4052 -1.454 2.7682
                      CHANNELS 3 Zrotation Xrotation Yrotation
                      JOINT rIndex2_End
                      {
                        OFFSET -1.4531 -1.795 1.2713
                        CHANNELS 3 Zrotation Xrotation Yrotation
                        End Site
                        {
                          OFFSET -0.0145 -0.018 0.0127
                        }
                      }
                    }
                  }
                  JOINT rMid1
                  {
                    OFFSET -5.6954 0.21 2.1184
                    CHANNELS 3 Zrotation Xrotation Yrotation
                    JOINT rMid2
                    {
                      OFFSET -3.9766 -1.54 2.3863
                      CHANNELS 3 Zrotation Xrotation Yrotation
                      JOINT rMid2_End
                      {
                        OFFSET -1.4042 -1.926 1.125
                        CHANNELS 3 Zrotation Xrotation Yrotation
                        End Site
                        {
                          OFFSET -0.014 -0.0193 0.0113
                        }
                      }
                    }
                  }
                }
                JOINT rCarpal2
                {
                  OFFSET -2.0956 0.66 -0.3894
                  CHANNELS 3 Zrotation Xrotation Yrotation
                  JOINT rRing1
                  {
                    OFFSET -5.0395 -0.09 2.4971
                    CHANNELS 3 Zrotation Xrotation Yrotation
                    JOINT rRing2
                    {
                      OFFSET -3.7921 -1.552 1.4806
                      CHANNELS 3 Zrotation Xrotation Yrotation
                      JOINT rRing2_End
                      {
                        OFFSET -1.4655 -1.808 0.9609
                        CHANNELS 3 Zrotation Xrotation Yrotation
                        End Site
                        {
                          OFFSET -0.0147 -0.0181 0.0096
                        }
                      }
                    }
                  }
                  JOINT rPinky1
                  {
                    OFFSET -4.9141 -1.269 0.3592
                    CHANNELS 3 Zrotation Xrotation Yrotation
                    JOINT rPinky2
                    {
                      OFFSET -3.1477 -1.685 0.8462
                      CHANNELS 3 Zrotation Xrotation Yrotation
                      JOINT rPinky2_End
                      {
                        OFFSET -0.8055 -1.585 0.7955
                        CHANNELS 3 Zrotation Xrotation Yrotation
                        End Site
                        {
                          OFFSET -0.0081 -0.0158 0.008
                        }
                      }
                    }
                  }
                }
              }
            }
          }
        }
      }
    }
  }
  JOINT lThigh
  {
    OFFSET 8.367 -8.2066 0.5982
    CHANNELS 3 Zrotation Xrotation Yrotation
    JOINT lShin
    {
      OFFSET 2.1923 -43.463 -0.4932
      CHANNELS 3 Zrotation Xrotation Yrotation
      JOINT lFoot
      {
        OFFSET 0.7333 -45.8593 -2.6451
        CHANNELS 3 Zrotation Xrotation Yrotation
        End Site
        {
          OFFSET 2.6618 -4.2699 12.3931
        }
      }
    }
  }
  JOINT rThigh
  {
    OFFSET -8.367 -8.2066 0.5982
    CHANNELS 3 Zrotation Xrotation Yrotation
    JOINT rShin
    {
      OFFSET -2.1923 -43.463 -0.4931
      CHANNELS 3 Zrotation Xrotation Yrotation
      JOINT rFoot
      {
        OFFSET -0.7333 -45.8593 -2.6451
        CHANNELS 3 Zrotation Xrotation Yrotation
        End Site
        {
          OFFSET -2.6618 -4.2699 12.3931
        }
      }
    }
  }
}
MOTION
Frames:	4
Frame Time:	0.0333333
41.6021 30.4743 4.12165 -0 -64.0139 -0 -1.81445 -5.8605 -0.712633 -3.73188 -11.6948 -1.62539 -3.73188 -11.6948 -1.62539 -18.7861 2.83438 1.99388 -1.2967 -21.8962 0.726663 14.0034 6.52166 19.2184 -2.30301 53.3701 19.5314 12.7299 39.9847 2.04379 9.4143 -10.3996 -14.0679 -1.49089e-016 -1.39149e-015 4.77083e-015 -1.54058e-015 -1.98785e-016 1.59028e-015 -1.54058e-015 0 -0 1.49089e-015 -1.39149e-015 3.18055e-015 -1.63997e-015 -1.19271e-015 4.77083e-015 -2.83268e-015 0 -1.59028e-015 -4.27387e-015 3.97569e-016 -1.59028e-015 -1.63997e-015 -1.19271e-015 4.77083e-015 -2.83268e-015 0 -1.59028e-015 -4.27387e-015 3.97569e-016 -1.59028e-015 1.49089e-015 -1.39149e-015 3.18055e-015 -1.63997e-015 -1.19271e-015 4.77083e-015 -2.83268e-015 0 -1.59028e-015 -4.27387e-015 3.97569e-016 -1.59028e-015 -1.63997e-015 -1.19271e-015 4.77083e-015 -2.83268e-015 0 -1.59028e-015 -4.27387e-015 3.97569e-016 -1.59028e-015 -11.5333 5.02856 -16.1802 0.357707 53.2875 -10.2387 -7.60452 41.7494 -11.9467 -6.81069 -4.17713 19.8835 3.08116e-015 -7.95139e-016 6.36111e-015 -3.97569e-016 3.97569e-016 3.18055e-015 2.38542e-015 3.97569e-016 3.18055e-015 -9.93923e-017 -7.95139e-016 6.36111e-015 -3.97569e-016 0 1.27222e-014 3.27995e-015 -7.95139e-016 -3.18055e-015 4.96962e-015 -1.19271e-015 3.18055e-015 -3.97569e-016 0 1.27222e-014 3.27995e-015 -7.95139e-016 -3.18055e-015 4.96962e-015 -1.19271e-015 3.18055e-015 -9.93923e-017 -7.95139e-016 6.36111e-015 -3.97569e-016 0 1.27222e-014 3.27995e-015 -7.95139e-016 -3.18055e-015 4.96962e-015 -1.19271e-015 3.18055e-015 -3.97569e-016 0 1.27222e-014 3.27995e-015 -7.95139e-016 -3.18055e-015 4.96962e-015 -1.19271e-015 3.18055e-015 42.7421 13.0956 40.9779 124.464 30.6837 -163.659 -46.8061 46.0048 37.9919 -38.0474 11.9949 -50.4388 -134.042 27.7001 166.241 41.8517 38.4856 -68.0292 
41.6021 30.5236 4.12165 -0 -64.0139 -0 -1.81378 -5.95305 -0.72145 -3.73363 -11.8795 -1.64657 -3.73362 -11.8795 -1.64656 -18.7896 3.02381 2.05841 -1.29402 -21.6033 0.733774 14.1326 6.5651 19.1001 -2.30302 53.3701 19.5314 12.7299 39.9847 2.04379 9.51319 -10.0633 -14.1745 -3.47873e-016 0 -0 -3.97569e-016 -7.95139e-016 -0 1.19271e-015 -9.93923e-016 1.59028e-015 -3.47873e-016 3.97569e-016 -1.59028e-015 -5.46658e-016 -7.95139e-016 6.36111e-015 -3.47873e-016 -1.19271e-015 -1.59028e-015 -3.97569e-016 -1.39149e-015 -3.18055e-015 -5.46658e-016 -7.95139e-016 6.36111e-015 -3.47873e-016 -1.19271e-015 -1.59028e-015 -3.97569e-016 -1.39149e-015 -3.18055e-015 -3.47873e-016 3.97569e-016 -1.59028e-015 -5.46658e-016 -7.95139e-016 6.36111e-015 -3.47873e-016 -1.19271e-015 -1.59028e-015 -3.97569e-016 -1.39149e-015 -3.18055e-015 -5.46658e-016 -7.95139e-016 6.36111e-015 -3.47873e-016 -1.19271e-015 -1.59028e-015 -3.97569e-016 -1.39149e-015 -3.18055e-015 -11.6783 5.06333 -15.9837 0.357709 53.2875 -10.2387 -7.60452 41.7494 -11.9467 -6.92013 -3.85645 19.9617 -1.00249e-006 -4.37459e-007 4.89958e-007 -9.93923e-016 -2.38542e-015 -3.18055e-015 -1.65956e-006 -3.51908e-007 -6.97011e-008 2.38542e-015 -1.59028e-015 3.18055e-015 -1.00249e-006 -4.37459e-007 4.89958e-007 5.96354e-016 -3.57812e-015 -3.18055e-015 -1.65956e-006 -3.51908e-007 -6.97011e-008 -1.00249e-006 -4.37459e-007 4.89958e-007 5.96354e-016 -3.57812e-015 -3.18055e-015 -1.65956e-006 -3.51908e-007 -6.97011e-008 2.38542e-015 -1.59028e-015 3.18055e-015 -1.00249e-006 -4.37459e-007 4.89958e-007 5.96354e-016 -3.57812e-015 -3.18055e-015 -1.65956e-006 -3.51908e-007 -6.97011e-008 -1.00249e-006 -4.37459e-007 4.89958e-007 5.96354e-016 -3.57812e-015 -3.18055e-015 -1.65956e-006 -3.51908e-007 -6.97011e-008 42.7409 13.0889 40.9745 124.463 30.6838 -163.654 -46.9287 45.9128 38.0572 -38.047 11.9874 -50.4345 -134.041 27.7001 166.235 41.9789 38.3952 -68.0894 
41.6021 30.5729 4.12165 -0 -64.0139 -0 -1.81311 -6.04559 -0.730263 -3.7354 -12.0642 -1.66775 -3.7354 -12.0642 -1.66775 -18.793 3.2133 2.12292 -1.29139 -21.3104 0.740843 14.262 6.60824 18.9818 -2.30301 53.3701 19.5314 12.7299 39.9847 2.04379 9.61261 -9.72722 -14.2815 2.70844e-015 7.95139e-016 1.59028e-015 8.58578e-009 1.44125e-007 8.62684e-007 3.52843e-015 0 3.18055e-015 1.11816e-015 -1.98785e-016 1.59028e-015 2.48481e-015 -7.95139e-016 7.95139e-015 8.58578e-009 1.44125e-007 8.62684e-007 1.83876e-015 -3.97569e-016 3.18055e-015 2.48481e-015 -7.95139e-016 7.95139e-015 8.58578e-009 1.44125e-007 8.62684e-007 1.83876e-015 -3.97569e-016 3.18055e-015 1.11816e-015 -1.98785e-016 1.59028e-015 2.48481e-015 -7.95139e-016 7.95139e-015 8.58578e-009 1.44125e-007 8.62684e-007 1.83876e-015 -3.97569e-016 3.18055e-015 2.48481e-015 -7.95139e-016 7.95139e-015 8.58578e-009 1.44125e-007 8.62684e-007 1.83876e-015 -3.97569e-016 3.18055e-015 -11.8234 5.09756 -15.787 0.357707 53.2875 -10.2387 -7.60451 41.7494 -11.9467 -7.02996 -3.53594 20.0406 -1.88845e-015 5.96354e-016 -6.36111e-015 -4.41391e-032 7.95139e-016 3.18055e-015 -1.19271e-015 -7.95139e-016 -0 -1.88845e-015 -1.98785e-016 -6.36111e-015 -3.97569e-016 1.39149e-015 3.18055e-015 1.39149e-015 -1.98785e-016 3.18055e-015 -3.97569e-016 5.96354e-016 3.18055e-015 -3.97569e-016 1.39149e-015 3.18055e-015 1.39149e-015 -1.98785e-016 3.18055e-015 -3.97569e-016 5.96354e-016 3.18055e-015 -1.88845e-015 -1.98785e-016 -6.36111e-015 -3.97569e-016 1.39149e-015 3.18055e-015 1.39149e-015 -1.98785e-016 3.18055e-015 -3.97569e-016 5.96354e-016 3.18055e-015 -3.97569e-016 1.39149e-015 3.18055e-015 1.39149e-015 -1.98785e-016 3.18055e-015 -3.97569e-016 5.96354e-016 3.18055e-015 42.7396 13.0822 40.9711 124.462 30.684 -163.648 -47.0509 45.8209 38.1221 -38.0465 11.9798 -50.4302 -134.041 27.7002 166.23 42.1058 38.3047 -68.1493 
41.6021 30.6222 4.12166 -0 -64.0139 -0 -1.81243 -6.13811 -0.739073 -3.73721 -12.249 -1.68895 -3.73721 -12.2489 -1.68895 -18.7968 3.4027 2.18748 -1.28881 -21.0175 0.747894 14.3914 6.65113 18.8633 -2.30301 53.3701 19.5314 12.7299 39.9847 2.04379 9.71256 -9.39133 -14.3891 -1.21756e-015 4.96962e-016 6.36111e-015 -2.80783e-015 -4.96962e-016 7.95139e-015 -1.31695e-015 1.98785e-016 6.36111e-015 -1.14301e-015 4.96962e-016 1.59028e-015 -1.14301e-015 1.98785e-016 7.95139e-015 -2.83268e-015 -1.98785e-016 6.36111e-015 2.73329e-016 2.98177e-016 4.77083e-015 -1.14301e-015 1.98785e-016 7.95139e-015 -2.83268e-015 -1.98785e-016 6.36111e-015 2.73329e-016 2.98177e-016 4.77083e-015 -1.14301e-015 4.96962e-016 1.59028e-015 -1.14301e-015 1.98785e-016 7.95139e-015 -2.83268e-015 -1.98785e-016 6.36111e-015 2.73329e-016 2.98177e-016 4.77083e-015 -1.14301e-015 1.98785e-016 7.95139e-015 -2.83268e-015 -1.98785e-016 6.36111e-015 2.73329e-016 2.98177e-016 4.77083e-015 -11.9687 5.13131 -15.5903 0.357711 53.2875 -10.2387 -7.6045 41.7494 -11.9467 -7.14019 -3.21559 20.12 -4.96962e-016 -2.5842e-015 -0 -4.96962e-016 -3.97569e-016 6.36111e-015 -1.98785e-016 -1.59028e-015 6.36111e-015 -5.96354e-016 -1.98785e-015 3.18055e-015 -1.98785e-016 -7.95139e-016 6.36111e-015 1.2921e-015 -1.19271e-015 6.36111e-015 1.09332e-015 0 3.18055e-015 -1.98785e-016 -7.95139e-016 6.36111e-015 1.2921e-015 -1.19271e-015 6.36111e-015 1.09332e-015 0 3.18055e-015 -5.96354e-016 -1.98785e-015 3.18055e-015 -1.98785e-016 -7.95139e-016 6.36111e-015 1.2921e-015 -1.19271e-015 6.36111e-015 1.09332e-015 0 3.18055e-015 -1.98785e-016 -7.95139e-016 6.36111e-015 1.2921e-015 -1.19271e-015 6.36111e-015 1.09332e-015 0 3.18055e-015 42.7384 13.0756 40.9677 124.461 30.6842 -163.642 -47.1728 45.7289 38.1866 -38.046 11.9723 -50.4259 -134.04 27.7002 166.225 42.2324 38.2141 -68.2088 
